<svg xmlns="http://www.w3.org/2000/svg" xmlns:xlink="http://www.w3.org/1999/xlink" width="140" zoomAndPan="magnify" viewBox="0 0 104.88 149.999998" height="200" preserveAspectRatio="xMidYMid meet" version="1.0"><defs><clipPath id="1ef0078e2d"><path d="M 0 0.0859375 L 104.761719 0.0859375 L 104.761719 149.914062 L 0 149.914062 Z M 0 0.0859375 " clip-rule="nonzero"/></clipPath></defs><g clip-path="url(#1ef0078e2d)"><path fill="#fff8e1" d="M 52.441406 0.0859375 C 23.484375 0.0859375 0 23.570312 0 52.527344 C 0 91.855469 52.441406 149.914062 52.441406 149.914062 C 52.441406 149.914062 104.878906 91.855469 104.878906 52.527344 C 104.878906 23.570312 81.394531 0.0859375 52.441406 0.0859375 Z M 52.441406 71.253906 C 42.101562 71.253906 33.710938 62.863281 33.710938 52.527344 C 33.710938 42.1875 42.101562 33.796875 52.441406 33.796875 C 62.777344 33.796875 71.167969 42.1875 71.167969 52.527344 C 71.167969 62.863281 62.777344 71.253906 52.441406 71.253906 Z M 52.441406 71.253906 " fill-opacity="1" fill-rule="nonzero"/></g></svg>