<svg xmlns="http://www.w3.org/2000/svg" xmlns:xlink="http://www.w3.org/1999/xlink" width="200" zoomAndPan="magnify" viewBox="0 0 150 149.999998" height="200" preserveAspectRatio="xMidYMid meet" version="1.0"><defs><clipPath id="33d5b7090f"><path d="M 3 0 L 147 0 L 147 150 L 3 150 Z M 3 0 " clip-rule="nonzero"/></clipPath></defs><g clip-path="url(#33d5b7090f)"><path fill="#ffffff" d="M 147.023438 71.011719 C 146.992188 69.054688 145.371094 67.457031 143.410156 67.457031 L 142.675781 67.457031 C 142.484375 64.695312 142.128906 61.980469 141.617188 59.320312 L 142.335938 59.128906 C 144.222656 58.621094 145.378906 56.6875 144.914062 54.8125 C 144.707031 53.992188 144.492188 53.175781 144.257812 52.363281 C 143.726562 50.507812 141.753906 49.402344 139.867188 49.914062 L 139.140625 50.109375 C 138.238281 47.507812 137.199219 44.972656 136 42.527344 L 136.648438 42.152344 C 138.34375 41.175781 138.957031 39.003906 138.019531 37.3125 C 137.609375 36.574219 137.183594 35.84375 136.75 35.121094 C 135.757812 33.464844 133.570312 32.917969 131.878906 33.890625 L 131.222656 34.269531 C 129.6875 32 128.003906 29.839844 126.210938 27.777344 L 126.753906 27.234375 C 128.136719 25.851562 128.167969 23.597656 126.828125 22.207031 C 126.242188 21.601562 125.644531 21.003906 125.039062 20.421875 C 123.648438 19.074219 121.394531 19.109375 120.011719 20.492188 L 119.464844 21.035156 C 117.40625 19.246094 115.25 17.566406 112.988281 16.03125 L 113.351562 15.414062 C 114.355469 13.71875 113.816406 11.515625 112.144531 10.507812 C 111.417969 10.070312 110.679688 9.644531 109.9375 9.230469 C 108.246094 8.289062 106.074219 8.90625 105.09375 10.597656 L 104.722656 11.246094 C 102.273438 10.050781 99.738281 9.003906 97.140625 8.105469 L 97.332031 7.378906 C 97.839844 5.488281 96.738281 3.519531 94.878906 2.988281 C 94.070312 2.757812 93.253906 2.539062 92.433594 2.335938 C 90.5625 1.867188 88.625 3.023438 88.117188 4.910156 L 87.925781 5.628906 C 85.265625 5.117188 82.550781 4.761719 79.789062 4.570312 L 79.789062 3.832031 C 79.789062 1.871094 78.195312 0.25 76.234375 0.222656 C 75.425781 0.207031 74.609375 0.207031 73.808594 0.222656 C 71.847656 0.25 70.25 1.871094 70.25 3.832031 L 70.25 4.566406 C 67.488281 4.757812 64.773438 5.113281 62.109375 5.628906 L 61.917969 4.90625 C 61.414062 3.019531 59.480469 1.867188 57.605469 2.332031 C 56.785156 2.535156 55.96875 2.75 55.15625 2.984375 C 53.296875 3.515625 52.199219 5.484375 52.703125 7.375 L 52.898438 8.101562 C 50.296875 9.003906 47.761719 10.042969 45.316406 11.242188 L 44.941406 10.59375 C 43.964844 8.902344 41.792969 8.285156 40.097656 9.226562 C 39.355469 9.640625 38.617188 10.066406 37.890625 10.503906 C 36.21875 11.511719 35.679688 13.714844 36.683594 15.410156 L 37.046875 16.027344 C 34.78125 17.5625 32.625 19.242188 30.566406 21.035156 L 30.023438 20.488281 C 28.640625 19.105469 26.382812 19.074219 24.992188 20.417969 C 24.386719 21 23.792969 21.597656 23.207031 22.203125 C 21.863281 23.59375 21.894531 25.851562 23.277344 27.230469 L 23.820312 27.777344 C 22.027344 29.839844 20.34375 32 18.808594 34.265625 L 18.152344 33.890625 C 16.460938 32.914062 14.277344 33.464844 13.28125 35.117188 C 12.847656 35.839844 12.421875 36.570312 12.015625 37.308594 C 11.074219 39 11.6875 41.171875 13.382812 42.152344 L 14.03125 42.523438 C 12.832031 44.972656 11.789062 47.503906 10.890625 50.105469 L 10.160156 49.910156 C 8.277344 49.40625 6.304688 50.503906 5.769531 52.363281 C 5.539062 53.171875 5.320312 53.988281 5.117188 54.808594 C 4.652344 56.683594 5.808594 58.621094 7.695312 59.125 L 8.414062 59.316406 C 7.898438 61.980469 7.546875 64.695312 7.355469 67.457031 L 6.621094 67.457031 C 4.660156 67.457031 3.042969 69.050781 3.011719 71.011719 C 3.003906 71.417969 3 71.820312 3 72.226562 C 3 72.632812 3.003906 73.039062 3.007812 73.4375 C 3.042969 75.398438 4.660156 76.996094 6.621094 76.996094 L 7.351562 76.996094 C 7.542969 79.75 7.902344 82.46875 8.414062 85.132812 L 7.695312 85.324219 C 5.808594 85.832031 4.652344 87.765625 5.117188 89.640625 C 5.324219 90.460938 5.542969 91.277344 5.773438 92.085938 C 6.21875 93.640625 7.664062 94.664062 9.234375 94.664062 C 9.542969 94.664062 9.851562 94.625 10.164062 94.539062 L 10.867188 94.351562 C 11.761719 96.953125 12.8125 99.484375 14.007812 101.941406 L 13.386719 102.300781 C 11.691406 103.277344 11.078125 105.449219 12.015625 107.140625 C 12.425781 107.878906 12.847656 108.609375 13.285156 109.332031 C 13.945312 110.429688 15.132812 111.042969 16.351562 111.042969 C 16.96875 111.042969 17.589844 110.886719 18.160156 110.5625 L 18.785156 110.199219 C 20.316406 112.472656 21.984375 114.648438 23.78125 116.71875 L 23.28125 117.21875 C 21.898438 118.597656 21.863281 120.855469 23.207031 122.246094 C 23.792969 122.851562 24.390625 123.449219 24.996094 124.035156 C 25.679688 124.695312 26.566406 125.019531 27.460938 125.019531 C 28.386719 125.019531 29.320312 124.667969 30.023438 123.960938 L 30.519531 123.46875 C 32.578125 125.261719 34.757812 126.929688 37.035156 128.472656 L 36.679688 129.085938 C 35.707031 130.777344 36.257812 132.960938 37.910156 133.957031 C 38.632812 134.390625 39.363281 134.816406 40.101562 135.222656 C 40.636719 135.523438 41.226562 135.664062 41.804688 135.664062 C 43.050781 135.664062 44.277344 135.011719 44.941406 133.855469 L 45.300781 133.238281 C 49.007812 135.039062 52.921875 136.515625 57.007812 137.640625 L 56.03125 141.867188 L 40.589844 141.867188 C 39.933594 141.867188 39.402344 142.398438 39.402344 143.054688 L 39.402344 148.601562 C 39.402344 149.257812 39.933594 149.789062 40.589844 149.789062 L 109.445312 149.789062 C 110.097656 149.789062 110.628906 149.257812 110.628906 148.601562 L 110.628906 143.054688 C 110.628906 142.398438 110.097656 141.867188 109.445312 141.867188 L 94.003906 141.867188 L 93.027344 137.640625 C 97.113281 136.519531 101.027344 135.042969 104.734375 133.238281 L 105.089844 133.855469 C 105.757812 135.011719 106.980469 135.664062 108.230469 135.664062 C 108.808594 135.664062 109.394531 135.523438 109.933594 135.226562 C 110.671875 134.816406 111.402344 134.390625 112.125 133.957031 C 113.777344 132.960938 114.328125 130.777344 113.351562 129.085938 L 113 128.472656 C 115.28125 126.933594 117.457031 125.261719 119.519531 123.472656 L 120.011719 123.964844 C 120.714844 124.667969 121.644531 125.023438 122.574219 125.023438 C 123.46875 125.023438 124.359375 124.695312 125.042969 124.035156 C 125.648438 123.449219 126.242188 122.855469 126.828125 122.25 C 128.171875 120.855469 128.140625 118.601562 126.757812 117.21875 L 126.257812 116.71875 C 128.050781 114.648438 129.71875 112.472656 131.253906 110.199219 L 131.878906 110.5625 C 132.445312 110.890625 133.066406 111.046875 133.683594 111.046875 C 134.902344 111.046875 136.089844 110.433594 136.75 109.335938 C 137.1875 108.613281 137.609375 107.882812 138.019531 107.144531 C 138.957031 105.453125 138.34375 103.28125 136.648438 102.304688 L 136.023438 101.941406 C 137.21875 99.488281 138.269531 96.953125 139.167969 94.355469 L 139.867188 94.542969 C 140.179688 94.625 140.492188 94.667969 140.800781 94.667969 C 142.367188 94.667969 143.816406 93.644531 144.261719 92.089844 C 144.492188 91.28125 144.710938 90.464844 144.914062 89.644531 C 145.378906 87.769531 144.222656 85.832031 142.335938 85.328125 L 141.617188 85.136719 C 142.132812 82.46875 142.492188 79.753906 142.683594 76.996094 L 143.414062 76.996094 C 145.371094 76.996094 146.992188 75.402344 147.023438 73.441406 C 147.03125 73.039062 147.035156 72.632812 147.035156 72.230469 C 147.035156 71.824219 147.03125 71.417969 147.023438 71.011719 Z M 140.484375 52.207031 C 141.128906 52.035156 141.796875 52.398438 141.976562 53.019531 C 142.199219 53.800781 142.410156 54.589844 142.609375 55.382812 C 142.761719 56.011719 142.367188 56.660156 141.722656 56.835938 L 141.117188 56.996094 C 140.757812 55.433594 140.355469 53.886719 139.890625 52.363281 Z M 133.0625 35.949219 C 133.640625 35.617188 134.382812 35.792969 134.714844 36.347656 C 135.136719 37.042969 135.542969 37.75 135.941406 38.464844 C 136.253906 39.03125 136.039062 39.761719 135.460938 40.097656 L 134.914062 40.410156 C 134.164062 38.996094 133.355469 37.621094 132.507812 36.269531 Z M 121.6875 22.167969 C 122.160156 21.695312 122.921875 21.679688 123.390625 22.125 C 123.976562 22.691406 124.550781 23.269531 125.117188 23.851562 C 125.566406 24.320312 125.546875 25.082031 125.074219 25.554688 L 124.621094 26.007812 C 123.53125 24.839844 122.402344 23.710938 121.234375 22.621094 Z M 107.148438 11.78125 C 107.480469 11.203125 108.210938 10.988281 108.78125 11.300781 C 109.5 11.703125 110.214844 12.113281 110.914062 12.539062 C 111.476562 12.875 111.648438 13.621094 111.304688 14.203125 L 110.988281 14.742188 C 109.632812 13.890625 108.25 13.082031 106.835938 12.328125 Z M 90.410156 5.523438 C 90.582031 4.878906 91.238281 4.480469 91.859375 4.636719 C 92.652344 4.832031 93.441406 5.042969 94.222656 5.265625 C 94.84375 5.445312 95.210938 6.113281 95.035156 6.761719 L 94.878906 7.351562 C 93.359375 6.886719 91.808594 6.488281 90.246094 6.125 Z M 72.621094 3.832031 C 72.621094 3.160156 73.167969 2.605469 73.84375 2.59375 C 74.625 2.582031 75.40625 2.582031 76.191406 2.59375 C 76.863281 2.605469 77.414062 3.160156 77.414062 3.832031 L 77.414062 4.441406 C 76.613281 4.414062 75.820312 4.378906 75.015625 4.378906 C 74.214844 4.378906 73.417969 4.414062 72.621094 4.441406 Z M 54.996094 6.761719 C 54.820312 6.113281 55.1875 5.445312 55.804688 5.265625 C 56.589844 5.042969 57.378906 4.832031 58.171875 4.636719 C 58.796875 4.480469 59.449219 4.878906 59.621094 5.523438 L 59.785156 6.125 C 58.21875 6.484375 56.671875 6.886719 55.152344 7.351562 Z M 38.726562 14.199219 C 38.382812 13.621094 38.558594 12.875 39.117188 12.539062 C 39.820312 12.113281 40.535156 11.703125 41.253906 11.300781 C 41.820312 10.992188 42.550781 11.203125 42.886719 11.78125 L 43.199219 12.328125 C 41.785156 13.082031 40.402344 13.890625 39.046875 14.742188 Z M 24.957031 25.554688 C 24.484375 25.082031 24.464844 24.320312 24.914062 23.855469 C 25.480469 23.269531 26.058594 22.691406 26.644531 22.125 C 27.109375 21.675781 27.871094 21.691406 28.34375 22.167969 L 28.800781 22.621094 C 27.632812 23.710938 26.503906 24.839844 25.414062 26.007812 Z M 14.570312 40.097656 C 13.992188 39.761719 13.777344 39.03125 14.089844 38.464844 C 14.488281 37.75 14.894531 37.042969 15.316406 36.34375 C 15.648438 35.792969 16.390625 35.613281 16.96875 35.949219 L 17.523438 36.269531 C 16.675781 37.621094 15.867188 38.996094 15.117188 40.410156 Z M 8.3125 56.832031 C 7.667969 56.660156 7.269531 56.011719 7.425781 55.382812 C 7.621094 54.585938 7.832031 53.800781 8.054688 53.019531 C 8.234375 52.398438 8.90625 52.035156 9.550781 52.203125 L 10.144531 52.363281 C 9.675781 53.882812 9.277344 55.429688 8.914062 56.996094 Z M 6.621094 74.621094 C 5.949219 74.621094 5.394531 74.074219 5.382812 73.398438 C 5.375 73.007812 5.375 72.617188 5.375 72.226562 C 5.375 71.835938 5.375 71.445312 5.382812 71.054688 C 5.394531 70.378906 5.949219 69.832031 6.621094 69.832031 L 7.230469 69.832031 C 7.203125 70.628906 7.171875 71.425781 7.171875 72.226562 C 7.171875 73.03125 7.191406 73.824219 7.21875 74.621094 Z M 9.550781 92.246094 C 8.902344 92.417969 8.234375 92.054688 8.058594 91.433594 C 7.835938 90.652344 7.621094 89.863281 7.425781 89.070312 C 7.269531 88.441406 7.667969 87.792969 8.3125 87.621094 L 8.90625 87.460938 C 9.265625 89.023438 9.671875 90.566406 10.132812 92.089844 Z M 16.96875 108.503906 C 16.390625 108.835938 15.648438 108.664062 15.316406 108.109375 C 14.894531 107.410156 14.488281 106.703125 14.089844 105.988281 C 13.777344 105.425781 13.992188 104.691406 14.570312 104.359375 L 15.089844 104.058594 C 15.839844 105.472656 16.640625 106.851562 17.488281 108.207031 Z M 28.34375 122.285156 C 27.871094 122.757812 27.109375 122.777344 26.644531 122.328125 C 26.058594 121.761719 25.480469 121.183594 24.914062 120.597656 C 24.464844 120.132812 24.484375 119.371094 24.957031 118.898438 L 25.367188 118.488281 C 26.453125 119.65625 27.578125 120.792969 28.746094 121.882812 Z M 42.882812 132.671875 C 42.550781 133.25 41.816406 133.464844 41.253906 133.148438 C 40.539062 132.753906 39.832031 132.347656 39.136719 131.925781 C 38.582031 131.59375 38.402344 130.851562 38.738281 130.273438 L 39.03125 129.765625 C 40.378906 130.609375 41.765625 131.40625 43.179688 132.160156 Z M 89.859375 123.976562 C 103.570312 120.054688 114.78125 110.976562 121.605469 99.1875 C 121.613281 99.171875 121.628906 99.160156 121.636719 99.144531 C 121.644531 99.132812 121.644531 99.117188 121.652344 99.105469 C 123.96875 95.082031 125.78125 90.742188 127.003906 86.1875 C 127.003906 86.175781 127.011719 86.167969 127.015625 86.160156 C 127.015625 86.152344 127.015625 86.144531 127.015625 86.136719 C 128.207031 81.675781 128.847656 77.011719 128.847656 72.226562 C 128.847656 67.414062 128.207031 62.753906 127.015625 58.3125 C 127.015625 58.304688 127.015625 58.300781 127.015625 58.292969 C 127.011719 58.285156 127.007812 58.28125 127.003906 58.273438 C 125.785156 53.730469 123.980469 49.425781 121.679688 45.4375 C 121.660156 45.394531 121.660156 45.351562 121.636719 45.308594 C 121.613281 45.269531 121.578125 45.246094 121.550781 45.210938 C 119.222656 41.214844 116.402344 37.539062 113.164062 34.28125 C 113.132812 34.242188 113.117188 34.195312 113.082031 34.160156 C 113.046875 34.125 113 34.109375 112.960938 34.078125 C 109.703125 30.839844 106.027344 28.019531 102.03125 25.695312 C 101.996094 25.667969 101.972656 25.628906 101.933594 25.605469 C 101.894531 25.582031 101.847656 25.582031 101.808594 25.5625 C 97.820312 23.265625 93.515625 21.457031 88.972656 20.238281 C 88.964844 20.234375 88.957031 20.230469 88.949219 20.226562 C 88.941406 20.226562 88.9375 20.226562 88.929688 20.226562 C 84.488281 19.035156 79.828125 18.394531 75.015625 18.394531 C 70.207031 18.394531 65.546875 19.035156 61.105469 20.226562 C 61.097656 20.230469 61.089844 20.226562 61.082031 20.226562 C 61.074219 20.230469 61.070312 20.234375 61.0625 20.238281 C 56.519531 21.457031 52.214844 23.265625 48.226562 25.5625 C 48.1875 25.582031 48.140625 25.582031 48.097656 25.605469 C 48.058594 25.628906 48.035156 25.667969 48 25.695312 C 44.007812 28.019531 40.332031 30.839844 37.074219 34.078125 C 37.035156 34.109375 36.988281 34.125 36.949219 34.160156 C 36.914062 34.195312 36.898438 34.242188 36.871094 34.28125 C 33.628906 37.539062 30.8125 41.214844 28.484375 45.210938 C 28.457031 45.246094 28.417969 45.269531 28.394531 45.308594 C 28.371094 45.351562 28.371094 45.394531 28.355469 45.4375 C 26.054688 49.425781 24.25 53.730469 23.027344 58.273438 C 23.027344 58.28125 23.019531 58.285156 23.019531 58.292969 C 23.015625 58.300781 23.019531 58.304688 23.015625 58.3125 C 21.828125 62.753906 21.183594 67.414062 21.183594 72.226562 C 21.183594 77.011719 21.824219 81.675781 23.015625 86.136719 C 23.019531 86.144531 23.015625 86.152344 23.019531 86.160156 C 23.019531 86.167969 23.027344 86.175781 23.03125 86.1875 C 24.253906 90.742188 26.0625 95.078125 28.382812 99.105469 C 28.390625 99.117188 28.386719 99.132812 28.394531 99.144531 C 28.40625 99.160156 28.417969 99.171875 28.429688 99.1875 C 35.253906 110.976562 46.460938 120.054688 60.171875 123.976562 L 59.785156 125.660156 C 35.980469 118.894531 19.457031 97.101562 19.457031 72.226562 C 19.457031 41.59375 44.382812 16.667969 75.019531 16.667969 C 105.652344 16.667969 130.578125 41.59375 130.578125 72.226562 C 130.578125 97.101562 114.054688 118.894531 90.253906 125.660156 Z M 39.476562 109.445312 L 48.429688 100.492188 C 50.308594 102.265625 52.367188 103.859375 54.585938 105.238281 L 48.257812 116.199219 C 45.074219 114.261719 42.136719 111.988281 39.476562 109.445312 Z M 48.273438 28.277344 L 54.59375 39.230469 C 52.382812 40.601562 50.324219 42.195312 48.4375 43.96875 L 39.503906 35.035156 C 42.175781 32.488281 45.105469 30.210938 48.273438 28.277344 Z M 87.183594 22.234375 L 83.910156 34.445312 C 81.421875 33.859375 78.847656 33.515625 76.203125 33.433594 L 76.203125 20.796875 C 79.976562 20.882812 83.652344 21.375 87.183594 22.234375 Z M 99.703125 27.089844 L 93.386719 38.035156 C 91.117188 36.8125 88.714844 35.8125 86.207031 35.054688 L 89.476562 22.851562 C 93.0625 23.902344 96.488281 25.324219 99.703125 27.089844 Z M 110.527344 35.035156 L 101.59375 43.96875 C 99.707031 42.195312 97.648438 40.601562 95.4375 39.230469 L 101.761719 28.277344 C 104.925781 30.210938 107.859375 32.488281 110.527344 35.035156 Z M 118.964844 45.484375 L 108.011719 51.804688 C 106.636719 49.59375 105.046875 47.535156 103.273438 45.648438 L 112.203125 36.714844 C 114.753906 39.382812 117.03125 42.316406 118.964844 45.484375 Z M 112.230469 107.765625 L 103.277344 98.808594 C 105.050781 96.914062 106.636719 94.851562 108.003906 92.644531 L 118.96875 98.976562 C 117.046875 102.136719 114.785156 105.085938 112.230469 107.765625 Z M 82.230469 77.761719 L 105.9375 91.453125 C 104.675781 93.480469 103.21875 95.375 101.585938 97.117188 Z M 48.445312 97.121094 C 46.816406 95.375 45.355469 93.480469 44.09375 91.453125 L 67.800781 77.761719 Z M 67.800781 66.691406 L 44.078125 52.992188 C 45.34375 50.960938 46.804688 49.066406 48.4375 47.324219 Z M 66.613281 68.746094 L 40.136719 61.652344 C 40.839844 59.34375 41.761719 57.132812 42.882812 55.046875 Z M 66 71.039062 L 38.597656 71.039062 C 38.675781 68.605469 38.992188 66.238281 39.527344 63.945312 Z M 65.996094 73.414062 L 39.546875 80.5 C 39.007812 78.203125 38.699219 75.832031 38.617188 73.414062 Z M 66.613281 75.707031 L 42.890625 89.402344 C 41.765625 87.308594 40.871094 85.089844 40.171875 82.792969 Z M 50.113281 45.648438 C 51.855469 44.015625 53.75 42.554688 55.78125 41.289062 L 69.476562 65.011719 Z M 57.835938 40.09375 C 59.925781 38.972656 62.136719 38.050781 64.441406 37.347656 L 71.535156 63.824219 Z M 66.734375 36.738281 C 69.027344 36.207031 71.398438 35.886719 73.828125 35.808594 L 73.828125 63.210938 Z M 84.035156 73.414062 L 111.414062 73.414062 C 111.332031 75.832031 111.023438 78.203125 110.484375 80.5 Z M 109.859375 82.792969 C 109.160156 85.089844 108.265625 87.308594 107.140625 89.40625 L 83.421875 75.707031 Z M 84.03125 71.039062 L 110.503906 63.945312 C 111.039062 66.238281 111.355469 68.609375 111.433594 71.039062 Z M 83.421875 68.746094 L 107.148438 55.046875 C 108.269531 57.132812 109.191406 59.34375 109.894531 61.652344 Z M 82.230469 66.691406 L 101.59375 47.324219 C 103.226562 49.066406 104.6875 50.960938 105.957031 52.992188 Z M 76.203125 35.808594 C 78.636719 35.886719 81.007812 36.203125 83.296875 36.738281 L 76.203125 63.210938 Z M 85.589844 37.347656 C 87.898438 38.050781 90.109375 38.972656 92.195312 40.09375 L 78.496094 63.824219 Z M 94.25 41.289062 C 96.28125 42.554688 98.175781 44.015625 99.917969 45.648438 L 80.554688 65.011719 Z M 120.160156 96.921875 L 109.199219 90.589844 C 110.421875 88.316406 111.425781 85.914062 112.179688 83.414062 L 124.402344 86.6875 C 123.351562 90.265625 121.925781 93.691406 120.160156 96.921875 Z M 125.011719 84.394531 L 112.792969 81.121094 C 113.382812 78.621094 113.730469 76.042969 113.8125 73.414062 L 126.449219 73.414062 C 126.363281 77.171875 125.875 80.847656 125.011719 84.394531 Z M 113.808594 71.039062 C 113.726562 68.394531 113.382812 65.820312 112.796875 63.332031 L 125.007812 60.058594 C 125.867188 63.59375 126.359375 67.265625 126.445312 71.039062 Z M 112.1875 61.039062 C 111.429688 58.53125 110.429688 56.125 109.207031 53.859375 L 120.152344 47.539062 C 121.917969 50.753906 123.34375 54.183594 124.394531 57.765625 Z M 73.828125 33.433594 C 71.1875 33.515625 68.609375 33.859375 66.121094 34.445312 L 62.851562 22.234375 C 66.382812 21.375 70.054688 20.882812 73.828125 20.796875 Z M 60.558594 22.847656 L 63.828125 35.054688 C 61.320312 35.8125 58.914062 36.8125 56.648438 38.035156 L 50.328125 27.089844 C 53.542969 25.324219 56.972656 23.902344 60.558594 22.847656 Z M 37.828125 36.714844 L 46.757812 45.648438 C 44.984375 47.53125 43.390625 49.59375 42.019531 51.804688 L 31.070312 45.480469 C 33.003906 42.316406 35.277344 39.382812 37.828125 36.714844 Z M 29.878906 47.539062 L 40.824219 53.859375 C 39.601562 56.125 38.601562 58.53125 37.847656 61.039062 L 25.640625 57.765625 C 26.691406 54.179688 28.113281 50.753906 29.878906 47.539062 Z M 25.023438 60.058594 L 37.234375 63.332031 C 36.648438 65.820312 36.304688 68.394531 36.222656 71.039062 L 23.585938 71.039062 C 23.671875 67.265625 24.160156 63.59375 25.023438 60.058594 Z M 36.21875 73.414062 C 36.300781 76.042969 36.648438 78.621094 37.238281 81.121094 L 25.019531 84.394531 C 24.15625 80.847656 23.667969 77.171875 23.582031 73.414062 Z M 37.851562 83.414062 C 38.609375 85.914062 39.609375 88.316406 40.835938 90.589844 L 29.871094 96.921875 C 28.105469 93.691406 26.679688 90.265625 25.632812 86.6875 Z M 42.027344 92.644531 C 43.394531 94.851562 44.980469 96.914062 46.753906 98.808594 L 37.800781 107.765625 C 35.246094 105.085938 32.988281 102.136719 31.0625 98.976562 Z M 50.109375 98.808594 L 69.476562 79.441406 L 55.789062 103.15625 C 53.75 101.886719 51.84375 100.4375 50.109375 98.808594 Z M 99.921875 98.808594 C 98.191406 100.4375 96.28125 101.886719 94.246094 103.15625 L 80.554688 79.441406 Z M 101.605469 100.492188 L 110.554688 109.445312 C 107.894531 111.992188 104.957031 114.261719 101.777344 116.203125 L 95.445312 105.238281 C 97.664062 103.859375 99.722656 102.265625 101.605469 100.492188 Z M 60.707031 121.660156 C 57.042969 120.601562 53.566406 119.164062 50.316406 117.386719 L 56.644531 106.425781 C 58.824219 107.601562 61.140625 108.574219 63.566406 109.324219 Z M 64.105469 106.980469 C 61.914062 106.292969 59.820312 105.414062 57.839844 104.351562 L 69.316406 84.46875 Z M 71.832031 73.609375 L 71.105469 76.742188 C 69.808594 75.625 69.039062 74 69.039062 72.226562 C 69.039062 68.929688 71.71875 66.25 75.015625 66.25 C 78.3125 66.25 80.992188 68.929688 80.992188 72.226562 C 80.992188 74 80.222656 75.625 78.925781 76.742188 L 78.199219 73.609375 C 77.84375 72.070312 76.566406 71.039062 75.015625 71.039062 C 73.46875 71.039062 72.1875 72.070312 71.832031 73.609375 Z M 92.191406 104.351562 C 90.214844 105.414062 88.117188 106.292969 85.925781 106.980469 L 80.714844 84.472656 Z M 93.390625 106.421875 L 99.71875 117.382812 C 96.46875 119.164062 92.988281 120.601562 89.324219 121.660156 L 86.46875 109.324219 C 88.894531 108.574219 91.207031 107.601562 93.390625 106.421875 Z M 90.785156 127.972656 C 115.667969 120.957031 132.949219 98.203125 132.949219 72.226562 C 132.949219 40.28125 106.960938 14.292969 75.015625 14.292969 C 43.070312 14.292969 17.082031 40.28125 17.082031 72.226562 C 17.082031 98.203125 34.367188 120.957031 59.246094 127.972656 L 58.511719 131.144531 C 32.144531 123.785156 13.832031 99.738281 13.832031 72.226562 C 13.832031 38.488281 41.277344 11.042969 75.015625 11.042969 C 108.753906 11.042969 136.199219 38.488281 136.199219 72.226562 C 136.199219 99.738281 117.886719 123.78125 91.519531 131.144531 Z M 108.257812 147.414062 L 41.777344 147.414062 L 41.777344 144.242188 L 108.257812 144.242188 Z M 79.578125 108.359375 C 78.460938 108.5 77.335938 108.585938 76.203125 108.625 L 76.203125 93.78125 Z M 64.316406 134.871094 C 67.835938 135.46875 71.429688 135.789062 75.015625 135.789062 C 78.605469 135.789062 82.195312 135.46875 85.71875 134.871094 L 86.148438 136.738281 C 78.835938 137.988281 71.203125 137.988281 63.886719 136.738281 Z M 65.585938 129.382812 C 68.6875 129.890625 71.855469 130.160156 75.015625 130.160156 C 78.179688 130.160156 81.34375 129.890625 84.445312 129.382812 L 85.179688 132.554688 C 78.492188 133.667969 71.539062 133.667969 64.851562 132.554688 Z M 66.511719 125.378906 C 69.308594 125.824219 72.164062 126.058594 75.015625 126.058594 C 77.871094 126.058594 80.722656 125.820312 83.519531 125.378906 L 83.910156 127.0625 C 78.058594 128.003906 71.976562 128.003906 66.125 127.0625 Z M 76.203125 123.65625 L 76.203125 111 C 77.515625 110.960938 78.824219 110.859375 80.117188 110.6875 L 82.980469 123.058594 C 80.75 123.40625 78.480469 123.605469 76.203125 123.65625 Z M 73.828125 108.625 C 72.695312 108.585938 71.570312 108.5 70.453125 108.359375 L 73.828125 93.78125 Z M 69.914062 110.6875 C 71.210938 110.855469 72.515625 110.960938 73.828125 111 L 73.828125 123.65625 C 71.550781 123.605469 69.285156 123.40625 67.050781 123.058594 Z M 63.347656 139.054688 C 67.179688 139.71875 71.097656 140.070312 75.015625 140.070312 C 78.933594 140.070312 82.851562 139.71875 86.6875 139.054688 L 87.339844 141.867188 L 62.695312 141.867188 Z M 89.773438 141.867188 L 76.171875 83.121094 C 76.164062 83.082031 76.140625 83.050781 76.128906 83.015625 C 76.109375 82.957031 76.085938 82.90625 76.058594 82.851562 C 76.019531 82.773438 75.972656 82.703125 75.914062 82.636719 C 75.878906 82.59375 75.847656 82.550781 75.804688 82.515625 C 75.734375 82.453125 75.65625 82.40625 75.574219 82.359375 C 75.53125 82.335938 75.492188 82.308594 75.445312 82.289062 C 75.3125 82.238281 75.167969 82.203125 75.015625 82.203125 C 74.863281 82.203125 74.722656 82.238281 74.585938 82.289062 C 74.539062 82.308594 74.503906 82.335938 74.460938 82.359375 C 74.375 82.40625 74.296875 82.453125 74.226562 82.515625 C 74.1875 82.554688 74.152344 82.59375 74.117188 82.636719 C 74.0625 82.703125 74.011719 82.773438 73.972656 82.851562 C 73.945312 82.90625 73.925781 82.957031 73.90625 83.015625 C 73.890625 83.050781 73.871094 83.082031 73.859375 83.121094 L 60.257812 141.867188 L 58.464844 141.867188 L 59.570312 137.097656 C 59.570312 137.097656 59.570312 137.09375 59.570312 137.09375 L 60.535156 132.921875 C 60.535156 132.921875 60.535156 132.921875 60.539062 132.921875 C 60.539062 132.921875 60.539062 132.921875 60.539062 132.917969 L 62.730469 123.445312 L 74.144531 74.144531 C 74.300781 73.46875 74.851562 73.414062 75.015625 73.414062 C 75.179688 73.414062 75.730469 73.46875 75.886719 74.144531 L 87.300781 123.445312 L 89.492188 132.917969 C 89.492188 132.921875 89.492188 132.921875 89.492188 132.921875 L 90.460938 137.09375 C 90.460938 137.09375 90.460938 137.097656 90.460938 137.097656 L 91.5625 141.867188 Z M 92.058594 133.460938 C 119.503906 125.847656 138.574219 100.839844 138.574219 72.226562 C 138.574219 37.179688 110.0625 8.667969 75.015625 8.667969 C 39.96875 8.667969 11.457031 37.179688 11.457031 72.226562 C 11.457031 100.839844 30.53125 125.847656 57.972656 133.460938 L 57.542969 135.328125 C 53.300781 134.15625 49.253906 132.589844 45.441406 130.664062 C 45.433594 130.660156 45.429688 130.652344 45.421875 130.644531 C 45.410156 130.640625 45.398438 130.640625 45.382812 130.632812 C 43.28125 129.566406 41.25 128.394531 39.296875 127.121094 C 39.269531 127.105469 39.25 127.074219 39.222656 127.058594 C 39.203125 127.046875 39.179688 127.046875 39.160156 127.039062 C 36.394531 125.230469 33.789062 123.21875 31.347656 121.03125 C 31.335938 121.019531 31.332031 121 31.320312 120.988281 C 31.296875 120.964844 31.265625 120.957031 31.242188 120.933594 C 29.507812 119.375 27.859375 117.730469 26.304688 116 C 26.285156 115.976562 26.277344 115.945312 26.253906 115.921875 C 26.242188 115.910156 26.222656 115.90625 26.210938 115.894531 C 24.015625 113.4375 22 110.820312 20.195312 108.0625 C 20.1875 108.046875 20.1875 108.03125 20.179688 108.019531 C 20.167969 108 20.152344 107.988281 20.136719 107.96875 C 13.394531 97.605469 9.542969 85.28125 9.542969 72.226562 C 9.542969 36.125 38.914062 6.753906 75.011719 6.753906 C 111.113281 6.753906 140.484375 36.125 140.484375 72.226562 C 140.484375 85.28125 136.632812 97.605469 129.886719 107.96875 C 129.875 107.988281 129.855469 107.996094 129.84375 108.019531 C 129.835938 108.03125 129.835938 108.046875 129.832031 108.0625 C 128.027344 110.820312 126.011719 113.433594 123.8125 115.890625 C 123.800781 115.902344 123.785156 115.90625 123.773438 115.917969 C 123.75 115.941406 123.742188 115.972656 123.71875 116 C 122.167969 117.730469 120.519531 119.375 118.785156 120.933594 C 118.761719 120.953125 118.730469 120.960938 118.707031 120.984375 C 118.695312 121 118.691406 121.015625 118.679688 121.03125 C 116.238281 123.214844 113.632812 125.226562 110.867188 127.035156 C 110.847656 127.046875 110.824219 127.046875 110.804688 127.058594 C 110.777344 127.074219 110.757812 127.101562 110.730469 127.121094 C 108.777344 128.394531 106.746094 129.566406 104.644531 130.628906 C 104.632812 130.636719 104.617188 130.636719 104.605469 130.644531 C 104.597656 130.648438 104.59375 130.65625 104.585938 130.660156 C 100.773438 132.589844 96.722656 134.152344 92.484375 135.324219 Z M 111.296875 130.273438 C 111.628906 130.851562 111.449219 131.59375 110.898438 131.925781 C 110.199219 132.347656 109.496094 132.753906 108.78125 133.152344 C 108.214844 133.464844 107.484375 133.25 107.148438 132.671875 L 106.851562 132.160156 C 108.269531 131.40625 109.652344 130.609375 111.003906 129.765625 Z M 125.074219 118.898438 C 125.546875 119.371094 125.566406 120.132812 125.117188 120.597656 C 124.550781 121.183594 123.976562 121.761719 123.390625 122.328125 C 122.921875 122.777344 122.160156 122.761719 121.6875 122.285156 L 121.285156 121.882812 C 122.457031 120.792969 123.578125 119.65625 124.667969 118.488281 Z M 135.460938 104.359375 C 136.039062 104.691406 136.253906 105.421875 135.941406 105.992188 C 135.546875 106.703125 135.136719 107.410156 134.714844 108.109375 C 134.382812 108.660156 133.640625 108.839844 133.0625 108.503906 L 132.542969 108.203125 C 133.390625 106.851562 134.191406 105.46875 134.941406 104.058594 Z M 141.722656 87.621094 C 142.367188 87.792969 142.765625 88.441406 142.609375 89.070312 C 142.410156 89.863281 142.199219 90.652344 141.976562 91.433594 C 141.800781 92.054688 141.132812 92.421875 140.484375 92.25 L 139.898438 92.09375 C 140.363281 90.570312 140.769531 89.023438 141.128906 87.460938 Z M 144.648438 73.398438 C 144.636719 74.074219 144.082031 74.621094 143.410156 74.621094 L 142.8125 74.621094 C 142.839844 73.824219 142.863281 73.027344 142.863281 72.226562 C 142.863281 71.421875 142.828125 70.625 142.800781 69.828125 L 143.410156 69.828125 C 144.082031 69.828125 144.636719 70.378906 144.648438 71.050781 C 144.65625 71.441406 144.65625 71.832031 144.65625 72.222656 C 144.65625 72.617188 144.65625 73.007812 144.648438 73.398438 Z M 144.648438 73.398438 " fill-opacity="1" fill-rule="nonzero"/></g></svg>